<svg id="Layer_1" data-name="Layer 1" xmlns="http://www.w3.org/2000/svg" viewBox="0 0 966.73 822.96"><defs><style>.cls-1{fill:#c49a6c;}.cls-2{fill:#a97c50;}.cls-3{fill:#58595b;}.cls-4{fill:#414042;}.cls-5{fill:#6d6e71;}.cls-6{fill:#ffde17;}</style></defs><title>desk</title><rect class="cls-1" x="876.81" y="498.52" width="40.47" height="324.44"/><rect class="cls-1" x="40.99" y="498.52" width="40.47" height="324.44"/><polygon class="cls-1" points="918.49 231.33 40.07 231.33 0 498.52 966.73 498.52 918.49 231.33"/><rect class="cls-2" y="498.52" width="966.73" height="25.17"/><path class="cls-3" d="M1405.16,909.22H1196.49c-18.18,0-31.06-16.06-28.84-35.29l13.56-117.44c1.74-15,15.62-26.91,31-26.91H1389.4c15.43,0,29.31,11.87,31,26.91L1434,873.93C1436.23,893.15,1423.34,909.22,1405.16,909.22Z" transform="translate(-524.14 -431.3)"/><polygon class="cls-4" points="884.27 453.16 669.1 453.16 680.63 338.99 872.75 338.99 884.27 453.16"/><path class="cls-4" d="M1316.81,750.05c0.13,8.52-7,15.53-16,15.53s-16.12-7-16-15.53,7.29-15.07,16-15.07S1316.68,741.67,1316.81,750.05Z" transform="translate(-524.14 -431.3)"/><path class="cls-4" d="M1349.63,750.05a9.2,9.2,0,0,1-9.48,9.5,10.08,10.08,0,0,1-10.2-9.5,9.22,9.22,0,0,1,9.49-9.33A10.1,10.1,0,0,1,1349.63,750.05Z" transform="translate(-524.14 -431.3)"/><path class="cls-4" d="M1272.05,750.05a10.07,10.07,0,0,1-10.2,9.5,9.21,9.21,0,0,1-9.48-9.5,10.1,10.1,0,0,1,10.19-9.33A9.22,9.22,0,0,1,1272.05,750.05Z" transform="translate(-524.14 -431.3)"/><polygon class="cls-3" points="558.94 458.72 131.33 458.72 140.42 340.9 549.86 340.9 558.94 458.72"/><polygon class="cls-5" points="452.46 445.62 146.54 445.62 153.24 352.61 448.84 352.61 452.46 445.62"/><polygon class="cls-5" points="545.41 445.84 462.9 445.84 458.93 352.82 538.66 352.82 545.41 445.84"/><circle class="cls-6" cx="691.07" cy="70.49" r="38.44"/><path class="cls-4" d="M1240.54,559.89c34.29-22.46,46.81-64,28-92.72s-61.9-33.84-96.18-11.38Z" transform="translate(-524.14 -431.3)"/><rect class="cls-4" x="1218.29" y="453.06" width="82.99" height="41.45" transform="translate(-580.08 326.04) rotate(-32.77)"/><rect class="cls-4" x="1254.5" y="445.24" width="58.77" height="24.68" transform="translate(-567.47 336.51) rotate(-32.77)"/><rect class="cls-4" x="1240.15" y="499.23" width="134.26" height="24.68" transform="matrix(-0.5, -0.86, 0.86, -0.5, 996.64, 1467.74)"/><circle class="cls-4" cx="815.34" cy="135.77" r="19.43"/><rect class="cls-4" x="1270.26" y="612.65" width="115.74" height="24.68" transform="translate(-63.32 1377.87) rotate(-78.98)"/><rect class="cls-4" x="731.2" y="246.48" width="121.79" height="24.98" rx="8.61" ry="8.61"/></svg>