<svg id="Layer_1" data-name="Layer 1" xmlns="http://www.w3.org/2000/svg" viewBox="0 0 372.06 326.92"><defs><style>.cls-1{fill:#fff;}.cls-2{fill:#58595b;}.cls-3{fill:#cfe8d1;}.cls-4{fill:#f7941e;}.cls-5{fill:#588f77;}.cls-6{fill:#1c75bc;}.cls-7{fill:#fff200;}.cls-8{fill:#7f3f98;}.cls-9{fill:#45bcec;}.cls-10{fill:#fbb040;}.cls-11{fill:#d1d3d4;}.cls-12{fill:#a7a9ac;}</style></defs><title>games</title><rect class="cls-1" y="120.69" width="372.06" height="19.36"/><rect class="cls-1" x="10.1" y="130.15" width="34.67" height="21.04"/><rect class="cls-1" x="325.77" y="129.53" width="34.67" height="21.04"/><rect class="cls-1" y="296.41" width="372.06" height="19.36"/><rect class="cls-1" x="10.1" y="305.88" width="34.67" height="21.04"/><rect class="cls-1" x="325.77" y="305.26" width="34.67" height="21.04"/><rect class="cls-2" x="63.33" width="244.41" height="120.69" rx="45.33" ry="45.33"/><rect class="cls-3" x="105.01" y="13.58" width="161.04" height="78.54"/><rect class="cls-4" x="79.46" y="49.47" width="11.04" height="27.6"/><rect class="cls-4" x="1610.83" y="658.2" width="11.04" height="27.6" transform="translate(756.99 -1553.08) rotate(90)"/><circle class="cls-4" cx="287.02" cy="51.37" r="6.55"/><circle class="cls-4" cx="297.04" cy="63.27" r="6.55"/><circle class="cls-4" cx="287.02" cy="76.11" r="6.55"/><circle class="cls-4" cx="277.01" cy="63.27" r="6.55"/><rect class="cls-4" x="217.59" y="100.05" width="48.46" height="7.15"/><rect class="cls-4" x="105.01" y="100.05" width="48.46" height="7.15"/><rect class="cls-4" x="161.3" y="100.05" width="48.46" height="7.15"/><path class="cls-5" d="M1650.25,665.51a2.63,2.63,0,0,1,.72-0.88,7,7,0,0,0,1-1.4,8,8,0,0,1-.11-4.25,3.63,3.63,0,0,1,2.19-2.52,7.88,7.88,0,0,1,2.52-1.42l0.25-.19c0.28-.32.57-0.63,0.87-0.93a0.68,0.68,0,0,1,.29-0.18c-0.08-.21-0.16-0.42-0.23-0.64q-0.71-1.44-1.32-2.92a0.7,0.7,0,0,1,.67-0.88l0.82,0a0.62,0.62,0,0,1,.5.21,17.45,17.45,0,0,1,5.55,3,38.58,38.58,0,0,1,8.6-.24l1.83-.1a1.16,1.16,0,0,1,.3,0c8.44-4.4,18.29-5.21,27.2-8.45a27.16,27.16,0,0,1,5-2.13,5.72,5.72,0,0,1,3.21-1,0.65,0.65,0,0,1,.27-0.14c10.19-2.51,21.43-2.16,30.28,4l0.28,0.16,0.27,0.09a11.11,11.11,0,0,1,3,1.5,56.72,56.72,0,0,1,9.64,5.41l0.24,0.1a16.68,16.68,0,0,1,2.86,1.9c1,0.57,2,1.19,3,1.83q3.52,1.93,7,3.94l0.41,0.18c0.86,0.39,1.71.81,2.55,1.24a6.36,6.36,0,0,1,1,.43l0.22,0.15a39.87,39.87,0,0,1,9.45,4.06c2.45,0.93,4.85,2,5.6,4.78a0.66,0.66,0,0,1-.52.83,0.86,0.86,0,0,1-.11.2,0.7,0.7,0,0,1-.95.25l-0.09-.07a9.21,9.21,0,0,1-2.5-.91c-2.72-1.12-5.47-2.21-8.21-3.31a74.32,74.32,0,0,1-25-12.45,48.18,48.18,0,0,0-4.93-2.31,7,7,0,0,1-1.24,4.55,2.86,2.86,0,0,0,1.91,2.51,5.58,5.58,0,0,1,2.31,1.06c1.54,1.57.48,4.22-.16,5.93a77.05,77.05,0,0,1-5.9,13h0c0.61,1.36,1.88,4,0,4.91s-3.56-1.14-4.33-2.61a7.65,7.65,0,0,1-1-2.85,5.31,5.31,0,0,1,.92-2.86,23.25,23.25,0,0,0,2-5.9,20.9,20.9,0,0,1-18.33-4.8c-2.53.53-5.14,0.59-7.63,1.39-2.72.87-5.39,2-8.06,3,0,1.79.09,3.58,0.2,5.36q0.31,4.74,1,9.45a0.64,0.64,0,0,1,0,.51,0.72,0.72,0,0,1-.16.32q-1.59,3-3.37,5.8a0.65,0.65,0,0,1-.55.32,0.71,0.71,0,0,1-.3.08l-4.84.21c-0.89,0-2,.32-2.57-0.4a0.69,0.69,0,0,1-.19-0.31,0.59,0.59,0,0,1,0-.2h0s0,0,0-.05a1.41,1.41,0,0,1,.06-0.38,3.35,3.35,0,0,1,1.11-1.37,6.33,6.33,0,0,1,.92-0.65,3.27,3.27,0,0,1,1.1-.52,0.66,0.66,0,0,1,.26-0.13,2.57,2.57,0,0,1,1.19,0,6.46,6.46,0,0,0,1.09-2,15.71,15.71,0,0,0-.34-2.77c-0.17-1.11-.37-2.22-0.58-3.33l-2.16-6.79a8.13,8.13,0,0,1-3-1.07,15.83,15.83,0,0,0-3.2-1.15,13.32,13.32,0,0,0-2.82,1.46q-1,.65-2.06,1.35c-0.51,4.59-5.9,7-9.84,8.8-0.64.3-1.29,0.58-1.95,0.86a2.36,2.36,0,0,1-.74.31q-1.8.74-3.64,1.41a28,28,0,0,1-3.5,1.54,16,16,0,0,1-2.67,1.43,17.12,17.12,0,0,1-1.63.57,8,8,0,0,1-3.24,1.07,2.21,2.21,0,0,1-1,.34,2.11,2.11,0,0,1-.81.15l-0.18,0c-1.53.09-4-.56-3.25-2.64a3.38,3.38,0,0,1,1.86-1.73c1.29-.62,2.68-1,4-1.63a54.57,54.57,0,0,0,14.43-9.49l0.61-.64a5.45,5.45,0,0,0,.57-0.79,10.62,10.62,0,0,0-.82-5.17,6.24,6.24,0,0,0-.51-0.69c-0.18-.15-0.36-0.31-0.54-0.47a27.16,27.16,0,0,0-5.33-.59l-0.18,0a17.76,17.76,0,0,1-3.38,1.45,0.68,0.68,0,0,1-.45.2,11.55,11.55,0,0,0-3.69,1.37,16,16,0,0,1-3.86,1.07,0.71,0.71,0,0,1-.63-0.21,4.94,4.94,0,0,1-3.82-2.41A2.81,2.81,0,0,1,1650.25,665.51Z" transform="translate(-1531.37 -608.74)"/><rect class="cls-6" x="58.39" y="178.01" width="23.82" height="118.34"/><rect class="cls-7" x="34.57" y="178.01" width="23.82" height="118.34"/><rect class="cls-8" x="81.5" y="178.01" width="23.82" height="118.34"/><rect class="cls-9" x="1654.9" y="785.8" width="23.82" height="118.34" transform="translate(-1708.66 -66.26) rotate(-17.57)"/><rect class="cls-10" x="194.87" y="178.01" width="23.82" height="118.34"/><rect class="cls-11" x="218.15" y="178.01" width="118.34" height="118.34"/><circle class="cls-12" cx="277.32" cy="239" r="52.14"/><circle class="cls-11" cx="277.32" cy="239" r="16.21"/></svg>