<svg id="Layer_1" data-name="Layer 1" xmlns="http://www.w3.org/2000/svg" viewBox="0 0 372.06 326.92"><defs><style>.cls-1{fill:#fff;}.cls-2{fill:#58595b;}.cls-3{fill:#f1f2f2;}.cls-4{fill:#f7941e;}.cls-5{fill:#1c75bc;}.cls-6{fill:#fff200;}.cls-7{fill:#7f3f98;}.cls-8{fill:#45bcec;}.cls-9{fill:#fbb040;}.cls-10{fill:#d1d3d4;}.cls-11{fill:#a7a9ac;}</style></defs><title>games</title><rect class="cls-1" y="120.69" width="372.06" height="19.36"/><rect class="cls-1" x="10.1" y="130.15" width="34.67" height="21.04"/><rect class="cls-1" x="325.77" y="129.53" width="34.67" height="21.04"/><rect class="cls-1" y="296.41" width="372.06" height="19.36"/><rect class="cls-1" x="10.1" y="305.88" width="34.67" height="21.04"/><rect class="cls-1" x="325.77" y="305.26" width="34.67" height="21.04"/><rect class="cls-2" x="63.33" width="244.41" height="120.69" rx="45.33" ry="45.33"/><rect class="cls-3" x="105.01" y="13.58" width="161.04" height="78.54"/><rect class="cls-4" x="79.46" y="49.47" width="11.04" height="27.6"/><rect class="cls-4" x="1610.83" y="658.2" width="11.04" height="27.6" transform="translate(756.99 -1553.08) rotate(90)"/><circle class="cls-4" cx="287.02" cy="51.37" r="6.55"/><circle class="cls-4" cx="297.04" cy="63.27" r="6.55"/><circle class="cls-4" cx="287.02" cy="76.11" r="6.55"/><circle class="cls-4" cx="277.01" cy="63.27" r="6.55"/><rect class="cls-4" x="217.59" y="100.05" width="48.46" height="7.15"/><rect class="cls-4" x="105.01" y="100.05" width="48.46" height="7.15"/><rect class="cls-4" x="161.3" y="100.05" width="48.46" height="7.15"/><rect class="cls-5" x="58.39" y="178.01" width="23.82" height="118.34"/><rect class="cls-6" x="34.57" y="178.01" width="23.82" height="118.34"/><rect class="cls-7" x="81.5" y="178.01" width="23.82" height="118.34"/><rect class="cls-8" x="1654.9" y="785.8" width="23.82" height="118.34" transform="translate(-1708.66 -66.26) rotate(-17.57)"/><rect class="cls-9" x="194.87" y="178.01" width="23.82" height="118.34"/><rect class="cls-10" x="218.15" y="178.01" width="118.34" height="118.34"/><circle class="cls-11" cx="277.32" cy="239" r="52.14"/><circle class="cls-10" cx="277.32" cy="239" r="16.21"/></svg>