<svg id="Layer_1" data-name="Layer 1" xmlns="http://www.w3.org/2000/svg" viewBox="0 0 726.97 222.86"><defs><style>.cls-1{fill:#006838;}.cls-2{fill:#f7941e;}.cls-3{fill:#ffde17;}.cls-4{fill:#f26522;}.cls-5{fill:#1c75bc;}.cls-6{fill:#58595b;}.cls-7{fill:#808285;}.cls-8{fill:#414042;}.cls-9{fill:#6d6e71;}.cls-10{fill:#d1d3d4;}.cls-11{fill:#fff;}</style></defs><title>misc</title><rect class="cls-1" x="628.51" y="36.27" width="22.83" height="82.58"/><path class="cls-1" d="M1367.41,147.84s-7.08,27.43-28.62,41.14S1296.48,170,1318,156.33,1367.41,147.84,1367.41,147.84Z" transform="translate(-677.25 -82.45)"/><path class="cls-1" d="M1275.88,105.53s28.18,3,44.91,22.24-12.5,44.64-29.23,25.36S1275.88,105.53,1275.88,105.53Z" transform="translate(-677.25 -82.45)"/><path class="cls-1" d="M1349.08,92.28s6.47,27.58-6.25,49.72-46.27,2.87-33.56-19.27S1349.08,92.28,1349.08,92.28Z" transform="translate(-677.25 -82.45)"/><path class="cls-1" d="M1263.1,158.63s26.87-9,50.09,1.61,7.14,45.81-16.08,35.2S1263.1,158.63,1263.1,158.63Z" transform="translate(-677.25 -82.45)"/><polygon class="cls-2" points="671.9 191.84 604.1 191.84 587.35 107.7 688.66 107.7 671.9 191.84"/><rect class="cls-3" x="55.54" y="5.36" width="44.93" height="186.02" rx="8.54" ry="8.54"/><rect class="cls-4" x="100.47" y="4.36" width="44.93" height="186.97" rx="8.54" ry="8.54"/><rect class="cls-5" x="841.4" y="83.36" width="44.93" height="189.49" rx="8.54" ry="8.54" transform="translate(-695.11 118.98) rotate(-13.16)"/><rect class="cls-6" x="314.02" y="68.65" width="22.94" height="16.19"/><rect class="cls-7" x="302.13" y="83.02" width="189.53" height="108.82"/><rect class="cls-6" x="302.13" y="107.55" width="189.53" height="59.76"/><circle class="cls-8" cx="421.81" cy="137.43" r="47.58"/><circle class="cls-9" cx="421.81" cy="137.43" r="41.83"/><circle class="cls-10" cx="421.81" cy="137.43" r="30.84"/><rect class="cls-7" x="379.99" y="54.18" width="79.04" height="28.84"/><rect class="cls-6" x="423.31" y="59.37" width="28.63" height="20.2"/><rect class="cls-11" y="192.14" width="726.97" height="19.36"/><rect class="cls-11" x="25.05" y="201.82" width="34.67" height="21.04"/><rect class="cls-11" x="664.87" y="201.82" width="34.67" height="21.04"/></svg>