<svg id="Layer_3" data-name="Layer 3" xmlns="http://www.w3.org/2000/svg" viewBox="0 0 269.52 415.57"><defs><style>.cls-1{fill:none;stroke:#58595b;stroke-miterlimit:10;stroke-width:5px;}.cls-2{fill:#58595b;}.cls-3{fill:#fff;}.cls-4{fill:#505966;}.cls-5{fill:#fee96e;}.cls-6{fill:#fee357;}.cls-7{fill:#f9d746;}.cls-8{fill:#fbee86;}.cls-9{fill:#fef494;}.cls-10{fill:#fdfad9;}.cls-11{fill:#fdf7b5;}.cls-12{fill:#fef6a8;}</style></defs><title>posters</title><line class="cls-1" x1="9.24" y1="89.85" x2="134.76" y2="2.82"/><line class="cls-1" x1="260.28" y1="89.85" x2="134.76" y2="2.82"/><rect class="cls-2" y="78.29" width="269.52" height="337.28"/><rect class="cls-3" x="9.24" y="89.85" width="251.04" height="314.16"/><rect class="cls-4" x="13.09" y="94.67" width="243.34" height="304.52"/><circle class="cls-3" cx="134.22" cy="10.41" r="10.41"/><polygon class="cls-5" points="84.33 286.31 103.66 291.66 110.34 266.97 89.27 270.69 84.33 286.31"/><polygon class="cls-6" points="103.66 291.66 140.46 300.4 144.65 271.44 110.34 266.97 103.66 291.66"/><polygon class="cls-5" points="170.63 312.2 140.33 300.54 144.65 271.44 171.79 287.26 170.63 312.2"/><polygon class="cls-7" points="88.52 307.7 121.98 315.53 140.46 300.4 103.66 291.66 88.52 307.7"/><polygon class="cls-5" points="110.34 266.97 144.65 271.44 136.62 254.55 102.95 250.29 110.34 266.97"/><polygon class="cls-6" points="72.12 295.6 88.52 307.7 103.66 291.66 84.5 286.18 72.12 295.6"/><polygon class="cls-8" points="89.27 270.69 110.34 266.97 102.89 250.39 83.67 255.29 89.27 270.69"/><polygon class="cls-9" points="63.78 284.52 84.33 286.31 89.27 270.69 65.7 270.72 63.78 284.52"/><polygon class="cls-10" points="57.41 257.13 83.81 255.39 89.27 270.69 65.7 270.72 57.41 257.13"/><polygon class="cls-5" points="63.78 284.52 84.33 286.31 72.06 295.57 57.14 293.24 63.78 284.52"/><polygon class="cls-8" points="52.4 284.29 63.78 284.52 65.7 270.72 51.79 273.99 52.4 284.29"/><polygon class="cls-11" points="65.7 270.72 51.79 273.99 42.64 260.44 57.41 257.13 65.7 270.72"/><polygon class="cls-6" points="52.4 284.29 63.78 284.52 57.14 293.24 44.79 293.25 52.4 284.29"/><polygon class="cls-9" points="51.79 273.99 42.03 281.18 36.27 275.09 42.64 260.44 51.79 273.99"/><polygon class="cls-5" points="52.4 284.29 44.79 293.25 42.03 281.18 51.79 273.99 52.4 284.29"/><polygon class="cls-6" points="33.95 296.22 44.79 293.25 42.03 281.18 33.95 296.22"/><polygon class="cls-5" points="42.03 281.18 33.95 296.22 36.27 275.09 42.03 281.18"/><polygon class="cls-6" points="150.83 326.8 121.98 315.53 140.46 300.4 170.63 312.2 150.83 326.8"/><polygon class="cls-6" points="181.73 302.54 179.8 318.21 170.63 312.2 171.79 287.26 181.73 302.54"/><polygon class="cls-7" points="150.83 326.8 170.63 312.2 179.8 318.21 168.18 327.27 150.83 326.8"/><polygon class="cls-9" points="179.8 318.21 245.07 380.82 235.8 365.25 181.73 302.54 179.8 318.21"/><polygon class="cls-6" points="178.5 319.22 220.97 367.33 229.88 366.25 179.8 318.21 178.5 319.22"/><polygon class="cls-5" points="199.04 359.71 220.97 367.33 178.5 319.22 174.35 322.45 199.04 359.71"/><polygon class="cls-6" points="184.25 375.2 199.04 359.71 174.35 322.45 168.18 327.27 165.38 327.19 184.25 375.2"/><polygon class="cls-5" points="110.34 266.97 144.65 271.44 160.29 248.72 135.16 240.97 110.34 266.97"/><polygon class="cls-8" points="144.65 271.44 171.79 287.26 181.57 267.05 160.29 248.72 144.65 271.44"/><polygon class="cls-5" points="171.79 287.26 186.51 285.26 181.57 267.05 171.79 287.26"/><polygon class="cls-6" points="171.79 287.26 182.06 302.93 186.51 285.26 171.79 287.26"/><polygon class="cls-5" points="160.29 248.72 181.57 267.05 192.2 247.56 160.15 210.46 160.29 248.72"/><polygon class="cls-9" points="160.15 210.46 135.16 240.97 160.29 248.72 160.15 210.46"/><polygon class="cls-6" points="192.2 247.56 215.77 231.18 160.15 210.46 192.2 247.56"/><polygon class="cls-5" points="160.15 210.46 215.77 231.18 231.27 213.18 160.15 210.46"/><polygon class="cls-9" points="160.15 210.46 231.27 213.18 241.2 186.65 160.15 210.46"/><polygon class="cls-12" points="160.15 210.46 241.2 186.65 242.08 155.78 160.15 210.46"/><polygon class="cls-11" points="160.15 210.46 242.06 156.42 234.8 129.75 160.15 210.46"/><polygon class="cls-10" points="160.15 210.46 234.8 129.75 209.49 111.66 160.15 210.46"/><polygon class="cls-6" points="87.86 254.22 102.95 250.29 117.04 252.07 118.8 237.35 91.98 235.6 87.86 254.22"/><polygon class="cls-7" points="118.8 237.35 133.67 242.53 123.12 253.58 117.04 252.07 118.8 237.35"/><polygon class="cls-5" points="118.8 237.35 91.27 199.41 91.98 235.6 118.8 237.35"/><polygon class="cls-6" points="118.8 237.35 133.67 242.53 142.57 231.92 91.27 199.41 118.8 237.35"/><polygon class="cls-5" points="156.2 215.29 91.27 199.41 142.57 231.92 156.2 215.29"/><polygon class="cls-9" points="168.45 193.84 91.27 199.41 156.2 215.29 160.15 210.46 168.45 193.84"/><polygon class="cls-12" points="178 163.83 91.27 199.41 168.45 193.84 180.59 169.54 178 163.83"/><polygon class="cls-12" points="164.01 140.31 91.27 199.41 178 163.83 164.01 140.31"/><polygon class="cls-11" points="140.69 123.88 91.27 199.41 164.01 140.31 140.69 123.88"/><polygon class="cls-10" points="111.31 113.37 91.27 199.41 140.69 123.88 111.31 113.37"/><polygon class="cls-8" points="162.25 334.57 153.24 324.47 140.46 300.4 162.68 309.09 162.25 334.57"/><polygon class="cls-5" points="162.25 334.57 128.93 332.4 119.16 324.23 152.5 323.06 162.25 334.57"/><polygon class="cls-6" points="131.59 323.79 123.3 349.05 119.16 324.23 131.59 323.79"/></svg>